<?xml version="1.0" encoding="UTF-8"?>
<svg width="1401px" height="390px" viewBox="0 0 1401 390" version="1.1" xmlns="http://www.w3.org/2000/svg" xmlns:xlink="http://www.w3.org/1999/xlink">
    <title>footer-background</title>
    <defs>
        <linearGradient xmlns="http://www.w3.org/2000/svg" x1="67.29079%" y1="41.994133%" x2="35.603039%" y2="55.124696%" id="linearGradient-1">
            <stop stop-color="#1C1C3B" offset="0%"/>
            <stop stop-color="#314360" offset="100%"/>
        </linearGradient>
        <linearGradient xmlns="http://www.w3.org/2000/svg" x1="34.5370617%" y1="42.9704607%" x2="62.047519%" y2="74.711115%" id="linearGradient-2">
            <stop stop-color="#191936" offset="0%"/>
            <stop stop-color="#314360" offset="100%"/>
        </linearGradient>
        <radialGradient cx="52.0672114%" cy="53.6380897%" fx="52.0672114%" fy="53.6380897%" r="41%" id="radialGradient-3">
            <stop stop-color="#F1B96C" offset="0%"></stop>
            <stop stop-color="#000000" offset="100%"></stop>
        </radialGradient>
    </defs>
    <g id="Page-1" stroke="none" stroke-width="1" fill="none" fill-rule="evenodd">
        <g id="Home-Page" transform="translate(0.000000, -2624.000000)" fill-rule="nonzero">
            <g id="Footer" transform="translate(0.000000, 2564.000000)">
                <g id="footer-background" transform="translate(0.000000, 60.000000)">
                    <path d="M1358.07011,348.404563 C1358.07011,268.613258 1293.38066,203.93 1213.59555,203.93 C1149.23842,203.93 1094.71368,246.004309 1076.02563,304.144645 C1073.03559,313.446922 1070.96295,323.160473 1069.91419,333.178776 C1061.64753,326.442744 1051.1004,322.402364 1039.60515,322.402364 C1016.51549,322.402364 997.243128,338.700215 992.638831,360.420355 C987.966367,357.662734 982.51929,356.088721 976.7004,356.088721 C959.330485,356.088721 945.257321,370.174278 945.257321,387.544193 L945.257321,387.885022 L935.9,389.93 L1400.72959,389.93 L1354.72379,379.46963 C1356.91749,369.461634 1358.07011,359.06943 1358.07011,348.404563 Z" id="Path" fill="url(#linearGradient-1)"></path>
                    <path d="M68.84,322.51 C68.84,193.75 173.23,89.37 301.98,89.37 C422.45,89.37 521.57,180.73 533.84,297.94 C547.18,287.07 564.2,280.55 582.75,280.55 C620.01,280.55 651.11,306.85 658.54,341.9 C666.08,337.45 674.87,334.91 684.26,334.91 C712.29,334.91 735,357.64 735,385.67 L735,386.22 C735,386.22 750.1,389.52 750.1,389.52 L734.85,389.52 C734.85,389.52 653.54,389.52 653.54,389.52 L633.66,389.52 C633.66,389.52 525.35,389.52 525.35,389.52 L511.97,389.52 C511.97,389.52 78.6,389.52 78.6,389.52 L0,389.52 C0,389.52 74.24,372.64 74.24,372.64 C70.7,356.49 68.84,339.72 68.84,322.51 Z" id="Path" fill="url(#linearGradient-2)"></path>
                    <g id="star" transform="translate(1255.000000, 21.000000)">
                        <path d="M20.4038156,18.8084261 L22.5,0 L24.5961844,18.8084261 C24.8608903,19.5524642 25.4475358,20.1391097 26.1915739,20.4038156 L45,22.5 L26.1915739,24.5961844 C25.4475358,24.8608903 24.8608903,25.4475358 24.5961844,26.1915739 L22.5,45 L20.4038156,26.1915739 C20.1391097,25.4475358 19.5524642,24.8608903 18.8084261,24.5961844 L0,22.5 L18.8084261,20.4038156 C19.5524642,20.1391097 20.1391097,19.5524642 20.4038156,18.8084261 Z" id="Path" fill="#ECE1B7"></path>
                        <circle id="Oval" fill="url(#radialGradient-3)" style="mix-blend-mode: screen;" cx="22" cy="22" r="13"></circle>
                    </g>
                    <g id="star" transform="translate(1030.000000, 0.000000)">
                        <path d="M17.2298887,15.8826709 L19,0 L20.7701113,15.8826709 C20.9936407,16.5109698 21.4890302,17.0063593 22.1173291,17.2298887 L38,19 L22.1173291,20.7701113 C21.4890302,20.9936407 20.9936407,21.4890302 20.7701113,22.1173291 L19,38 L17.2298887,22.1173291 C17.0063593,21.4890302 16.5109698,20.9936407 15.8826709,20.7701113 L0,19 L15.8826709,17.2298887 C16.5109698,17.0063593 17.0063593,16.5109698 17.2298887,15.8826709 Z" id="Path" fill="#ECE1B7"></path>
                        <circle id="Oval" fill="url(#radialGradient-3)" style="mix-blend-mode: screen;" cx="18" cy="19" r="11"></circle>
                    </g>
                    <g id="star" transform="translate(881.000000, 134.000000)">
                        <path d="M14.0559618,12.9569157 L15.5,0 L16.9440382,12.9569157 C17.1263911,13.4694754 17.5305246,13.8736089 18.0430843,14.0559618 L31,15.5 L18.0430843,16.9440382 C17.5305246,17.1263911 17.1263911,17.5305246 16.9440382,18.0430843 L15.5,31 L14.0559618,18.0430843 C13.8736089,17.5305246 13.4694754,17.1263911 12.9569157,16.9440382 L0,15.5 L12.9569157,14.0559618 C13.4694754,13.8736089 13.8736089,13.4694754 14.0559618,12.9569157 Z" id="Path" fill="#ECE1B7"></path>
                        <circle id="Oval" fill="url(#radialGradient-3)" style="mix-blend-mode: screen;" cx="15" cy="15" r="9"></circle>
                    </g>
                </g>
            </g>
        </g>
    </g>
</svg>
